<svg id="visual" viewBox="0 0 900 600" width="900" height="600" xmlns="http://www.w3.org/2000/svg" xmlns:xlink="http://www.w3.org/1999/xlink" version="1.1"><g fill="#f7fff7"><circle r="55" cx="703" cy="512"></circle><circle r="55" cx="878" cy="409"></circle><circle r="54" cx="563" cy="260"></circle><circle r="54" cx="655" cy="334"></circle><circle r="54" cx="190" cy="246"></circle><circle r="54" cx="528" cy="134"></circle><circle r="54" cx="108" cy="70"></circle><circle r="54" cx="864" cy="65"></circle><circle r="54" cx="442" cy="305"></circle><circle r="54" cx="60" cy="536"></circle><circle r="54" cx="826" cy="247"></circle><circle r="54" cx="686" cy="119"></circle><circle r="54" cx="200" cy="131"></circle><circle r="54" cx="65" cy="294"></circle><circle r="54" cx="535" cy="391"></circle><circle r="54" cx="311" cy="404"></circle><circle r="54" cx="750" cy="403"></circle><circle r="54" cx="386" cy="591"></circle><circle r="54" cx="335" cy="214"></circle><circle r="54" cx="574" cy="589"></circle><circle r="54" cx="578" cy="23"></circle><circle r="54" cx="8" cy="156"></circle><circle r="54" cx="447" cy="493"></circle><circle r="54" cx="392" cy="118"></circle><circle r="54" cx="381" cy="5"></circle><circle r="54" cx="164" cy="457"></circle><circle r="54" cx="203" cy="592"></circle><circle r="54" cx="865" cy="562"></circle><circle r="54" cx="207" cy="17"></circle><circle r="54" cx="730" cy="9"></circle><circle r="54" cx="293" cy="517"></circle><circle r="54" cx="11" cy="403"></circle><circle r="54" cx="4" cy="14"></circle><circle r="54" cx="715" cy="241"></circle></g></svg>