<svg width="94" height="177" viewBox="0 0 94 177" fill="none" xmlns="http://www.w3.org/2000/svg">
<path d="M47 1C83.1512 24.5858 92.5881 70.0936 92.9952 77.0029C93.4022 83.9123 68.094 126.619 47 140" stroke="#F7FFF7" stroke-width="2"/>
<path d="M47 2C10.8488 25.5858 1.41188 71.0936 1.00485 78.0029C0.597815 84.9123 25.906 127.619 47 141" stroke="#F7FFF7" stroke-width="2"/>
<path d="M46.5 141V31" stroke="#F7FFF7" stroke-width="2"/>
<path d="M22 80L46 103" stroke="#F7FFF7" stroke-width="2" stroke-linecap="round"/>
<path d="M70 80L47 103" stroke="#F7FFF7" stroke-width="2" stroke-linecap="round"/>
<path d="M34 68L46 80" stroke="#F7FFF7" stroke-width="2" stroke-linecap="round"/>
<path d="M59 68L47 80" stroke="#F7FFF7" stroke-width="2" stroke-linecap="round"/>
<path d="M54 50L47 57" stroke="#F7FFF7" stroke-width="2" stroke-linecap="round"/>
<path d="M39 50L46 57" stroke="#F7FFF7" stroke-width="2" stroke-linecap="round"/>
<path d="M46.5 141.5V166" stroke="#F7FFF7" stroke-width="2" stroke-linecap="round"/>
</svg>
