<svg width="116" height="208" viewBox="0 0 116 208" fill="none" xmlns="http://www.w3.org/2000/svg">
<path d="M58 1C102.408 30.0156 114 86 114.5 94.5C115 103 83.9116 155.538 58 172" stroke="#F7FFF7"/>
<path d="M57.5059 1C13.0982 30.0156 1.50595 86 1.00595 94.5C0.50596 103 31.5943 155.538 57.5059 172" stroke="#F7FFF7"/>
<path d="M57.5071 171.678C57.5071 178.567 57.5071 185.455 57.5071 192.344C57.5071 195.517 57.5071 197.822 57.5071 199.989C57.5071 202.101 57.5071 204.212 57.5071 206.324C57.5071 208.128 57.5071 206.31 57.5071 205.581C57.5071 204.613 58.4451 204.485 59.3441 204.879C59.568 204.977 59.4522 205.744 59.4522 205.959" stroke="#F7FFF7" stroke-linecap="round"/>
<path d="M57.0209 191.858C55.8162 191.123 54.684 189.547 54.36 188.089C54.2804 187.731 53.0104 184.874 53.8062 185.591C54.4492 186.169 55.2607 186.842 55.6837 187.603C56.0237 188.215 56.512 189.902 57.0209 190.156" stroke="#F7FFF7" stroke-linecap="round"/>
<path d="M58.083 183.629C58.7326 182.798 60.0725 181.871 60.0725 180.744C60.0725 179.837 61.0766 178.783 60.9789 177.904C60.9767 177.884 59.2167 179.313 59.0888 179.76C58.8146 180.72 57.8828 180.846 57.4861 181.639" stroke="#F7FFF7" stroke-linecap="round"/>
<path d="M57.5 172V62" stroke="#F7FFF7"/>
<path d="M24.2737 107.833L56.8659 140.425" stroke="#F7FFF7" stroke-linecap="round"/>
<path d="M90.5922 108L58 140.592" stroke="#F7FFF7" stroke-linecap="round"/>
<path d="M35 89L57 111" stroke="#F7FFF7" stroke-linecap="round"/>
<path d="M80 89L58 111" stroke="#F7FFF7" stroke-linecap="round"/>
<path d="M71 68L58 81" stroke="#F7FFF7" stroke-linecap="round"/>
<path d="M44 68L57 81" stroke="#F7FFF7" stroke-linecap="round"/>
</svg>
