<svg width="810" height="233" viewBox="0 0 810 233" fill="none" xmlns="http://www.w3.org/2000/svg">
<path d="M5 25C18.3333 -1.66667 31.6667 -1.66667 45 25C58.3333 51.6667 71.6667 51.6667 85 25C98.3333 -1.66667 111.667 -1.66667 125 25C138.333 51.6667 151.667 51.6667 165 25C178.333 -1.66667 191.667 -1.66667 205 25C218.333 51.6667 231.667 51.6667 245 25C258.333 -1.66667 271.667 -1.66667 285 25C298.333 51.6667 311.667 51.6667 325 25C338.333 -1.66667 351.667 -1.66667 365 25C378.333 51.6667 391.667 51.6667 405 25C418.333 -1.66667 431.667 -1.66667 445 25C458.333 51.6667 471.667 51.6667 485 25C498.333 -1.66667 511.667 -1.66667 525 25C538.333 51.6667 551.667 51.6667 565 25C578.333 -1.66667 591.667 -1.66667 605 25C618.333 51.6667 631.667 51.6667 645 25C658.333 -1.66667 671.667 -1.66667 685 25C698.333 51.6667 711.667 51.6667 725 25C738.333 -1.66667 751.667 -1.66667 765 25C778.333 51.6667 791.667 51.6667 805 25" stroke="#F7FFF7" stroke-width="10"/>
<path d="M5 117C18.3333 90.3333 31.6667 90.3333 45 117C58.3333 143.667 71.6667 143.667 85 117C98.3333 90.3333 111.667 90.3333 125 117C138.333 143.667 151.667 143.667 165 117C178.333 90.3333 191.667 90.3333 205 117C218.333 143.667 231.667 143.667 245 117C258.333 90.3333 271.667 90.3333 285 117C298.333 143.667 311.667 143.667 325 117C338.333 90.3333 351.667 90.3333 365 117C378.333 143.667 391.667 143.667 405 117C418.333 90.3333 431.667 90.3333 445 117C458.333 143.667 471.667 143.667 485 117C498.333 90.3333 511.667 90.3333 525 117C538.333 143.667 551.667 143.667 565 117C578.333 90.3333 591.667 90.3333 605 117C618.333 143.667 631.667 143.667 645 117C658.333 90.3333 671.667 90.3333 685 117C698.333 143.667 711.667 143.667 725 117C738.333 90.3333 751.667 90.3333 765 117C778.333 143.667 791.667 143.667 805 117" stroke="#F7FFF7" stroke-width="10"/>
<path d="M5 208C18.3333 181.333 31.6667 181.333 45 208C58.3333 234.667 71.6667 234.667 85 208C98.3333 181.333 111.667 181.333 125 208C138.333 234.667 151.667 234.667 165 208C178.333 181.333 191.667 181.333 205 208C218.333 234.667 231.667 234.667 245 208C258.333 181.333 271.667 181.333 285 208C298.333 234.667 311.667 234.667 325 208C338.333 181.333 351.667 181.333 365 208C378.333 234.667 391.667 234.667 405 208C418.333 181.333 431.667 181.333 445 208C458.333 234.667 471.667 234.667 485 208C498.333 181.333 511.667 181.333 525 208C538.333 234.667 551.667 234.667 565 208C578.333 181.333 591.667 181.333 605 208C618.333 234.667 631.667 234.667 645 208C658.333 181.333 671.667 181.333 685 208C698.333 234.667 711.667 234.667 725 208C738.333 181.333 751.667 181.333 765 208C778.333 234.667 791.667 234.667 805 208" stroke="#F7FFF7" stroke-width="10"/>
</svg>
